<svg width="102" height="30" viewBox="0 0 102 30" fill="none" xmlns="http://www.w3.org/2000/svg">
<path d="M8.56289 22.678C8.95389 22.678 9.34489 22.3913 9.73589 21.8178C10.153 21.2183 10.3615 20.6969 10.3615 20.2538C10.3615 19.8107 10.3224 19.4979 10.2442 19.3154C9.61859 19.8628 9.13636 20.4232 8.79749 20.9967C8.45863 21.5441 8.28919 21.9612 8.28919 22.2479C8.28919 22.5346 8.38043 22.678 8.56289 22.678ZM22.7953 13.5286C22.7953 13.7371 22.8605 13.8414 22.9908 13.8414C23.4861 13.8414 23.9813 13.4634 24.4766 12.7075C24.9719 11.9516 25.3107 11.0523 25.4932 10.0096C23.6946 11.6257 22.7953 12.7987 22.7953 13.5286ZM31.7101 2.6197C31.7101 2.4633 31.6319 2.3851 31.4755 2.3851C30.8238 2.3851 30.2113 2.82824 29.6378 3.7145C29.0643 4.5747 28.6994 5.53917 28.543 6.6079C30.6544 4.7311 31.7101 3.4017 31.7101 2.6197ZM19.5109 1.3685C21.8569 1.3685 23.5773 2.0332 24.6721 3.3626C25.7669 4.66594 26.3143 6.26904 26.3143 8.1719V8.5238L27.8001 7.23351C27.8783 5.79984 28.3345 4.47044 29.1686 3.24531C30.0288 1.9941 31.0715 1.3685 32.2966 1.3685C32.6876 1.3685 32.8831 1.62917 32.8831 2.15051C32.8831 2.64577 32.4921 3.32351 31.7101 4.1837C30.9542 5.0439 29.8724 6.0996 28.4648 7.3508V7.5463C28.4648 9.08424 29.0513 9.8532 30.2243 9.8532C31.0584 9.8532 31.7231 9.63164 32.2184 9.1885C32.4009 9.0321 32.5442 8.9539 32.6485 8.9539C32.7528 8.9539 32.8049 9.0321 32.8049 9.1885C32.8049 9.31884 32.7528 9.41007 32.6485 9.4622C32.5442 9.48827 32.4139 9.56647 32.2575 9.6968C32.1272 9.80107 31.9838 9.90534 31.8274 10.0096C31.3843 10.2963 30.7847 10.4397 30.0288 10.4397C28.6733 10.4397 27.9304 9.60557 27.8001 7.93731L26.2361 9.3058C26.0797 10.7395 25.6626 11.9907 24.9849 13.0594C24.3332 14.1021 23.5903 14.6234 22.7562 14.6234C22.2088 14.6234 21.9351 14.3497 21.9351 13.8023C21.9351 12.8639 23.1602 11.3129 25.6105 9.1494C25.6366 8.96694 25.6496 8.70627 25.6496 8.3674C25.6496 6.59487 25.0892 5.10907 23.9683 3.91C22.8735 2.68487 21.0879 2.0723 18.6116 2.0723C17.3865 2.0723 16.044 2.3069 14.5843 2.7761C11.7691 3.6363 9.33186 5.2785 7.27259 7.7027C7.11619 7.8591 6.95979 8.04157 6.80339 8.2501C6.51666 8.66717 6.32116 8.8757 6.21689 8.8757C6.03443 8.77144 5.94319 8.65414 5.94319 8.5238C6.46453 7.76787 7.18136 6.9598 8.09369 6.0996C9.00603 5.2394 9.94443 4.4965 10.9089 3.8709C11.8994 3.2453 13.1637 2.67184 14.7016 2.15051C16.2656 1.62917 17.8687 1.3685 19.5109 1.3685ZM18.6116 15.8355C18.8983 15.8355 19.0417 15.9398 19.0417 16.1483C19.0417 16.3568 18.8983 16.4611 18.6116 16.4611C15.5357 16.4611 12.9421 17.2431 10.8307 18.8071C10.961 19.1981 11.0262 19.55 11.0262 19.8628C11.0262 20.8012 10.7395 21.7005 10.166 22.5607C9.59253 23.4209 8.97996 23.851 8.32829 23.851C7.67663 23.851 7.35079 23.5252 7.35079 22.8735C7.35079 22.3522 7.58539 21.7266 8.05459 20.9967C8.52379 20.2408 9.17546 19.5109 10.0096 18.8071C9.48826 18.1033 8.56289 17.7514 7.23349 17.7514C5.40883 17.7514 3.87089 18.364 2.61969 19.5891C1.36849 20.7882 0.742893 22.1045 0.742893 23.5382C0.742893 24.9458 1.31636 26.1058 2.46329 27.0181C3.63629 27.9304 5.30456 28.3866 7.46809 28.3866C9.63163 28.3866 11.7561 27.9435 13.8414 27.0572C15.9528 26.1709 17.9599 24.9979 19.8628 23.5382C21.7657 22.0785 23.6555 20.4493 25.5323 18.6507C27.4091 16.8521 29.2207 14.9883 30.9672 13.0594C32.7397 11.1305 34.421 9.31884 36.0111 7.6245C39.7126 3.63631 42.6581 1.10784 44.8477 0.0391049C44.8998 0.0130386 44.952 5.40595e-06 45.0041 5.40595e-06C45.2387 5.40595e-06 45.356 0.156405 45.356 0.469204C45.356 0.599537 45.2126 0.782004 44.9259 1.0166C44.1439 1.66827 43.5053 2.24174 43.01 2.73701C41.9413 4.0664 40.8334 5.72164 39.6865 7.7027C38.5656 9.6577 37.7185 11.2217 37.145 12.3947C36.1023 14.5322 34.9554 16.9694 33.7042 19.7064C32.4791 22.4434 31.8665 23.864 31.8665 23.9683C31.8665 24.0465 31.8926 24.0856 31.9447 24.0856C32.2054 23.851 33.1177 22.7692 34.6817 20.8403C36.2718 18.9114 38.0182 16.9303 39.9211 14.8971C41.824 12.8378 43.9875 10.7264 46.4117 8.5629C48.8359 6.3733 51.4295 4.5747 54.1926 3.1671C56.9817 1.7595 59.6014 1.0557 62.0517 1.0557C64.8669 1.0557 66.2745 1.90287 66.2745 3.59721C66.2745 4.79627 65.5968 6.19084 64.2413 7.78091C62.8858 9.37097 61.1915 10.7395 59.1583 11.8864C57.1512 13.0333 55.3004 13.6068 53.6061 13.6068C52.7198 13.6068 52.0421 13.3983 51.5729 12.9812C51.1298 12.5641 50.9082 12.0298 50.9082 11.3781C50.9082 10.1008 51.5729 8.86267 52.9023 7.6636C54.2578 6.46454 55.9391 5.865 57.9462 5.865C58.2329 5.865 58.4154 5.95624 58.4936 6.13871C58.4936 6.26904 58.4154 6.38634 58.259 6.49061C58.1287 6.59487 57.9723 6.647 57.7898 6.647C56.2519 6.647 54.8443 7.14227 53.567 8.1328C52.2897 9.12334 51.6511 10.1008 51.6511 11.0653C51.6511 12.2122 52.6416 12.7857 54.6227 12.7857C56.6298 12.7857 58.9107 11.743 61.4652 9.6577C64.0458 7.54631 65.3361 5.69557 65.3361 4.1055C65.3361 2.64577 64.0588 1.9159 61.5043 1.9159C59.5493 1.9159 57.4509 2.43724 55.2092 3.4799C52.9935 4.4965 50.9603 5.72164 49.1096 7.1553C47.2849 8.5629 45.2648 10.3745 43.0491 12.5902C40.8595 14.7798 39.087 16.6827 37.7315 18.2988C36.376 19.8889 34.786 21.7787 32.9613 23.9683C31.1627 26.1579 30.0549 27.4873 29.6378 27.9565C29.2468 28.4257 28.947 28.6603 28.7385 28.6603C28.556 28.6603 28.4648 28.5691 28.4648 28.3866C28.4648 28.2041 28.6473 27.748 29.0122 27.0181C29.4032 26.2882 29.8333 25.4802 30.3025 24.5939C30.7978 23.6816 31.5928 21.9742 32.6876 19.4718C33.7824 16.9433 34.6426 15.0144 35.2682 13.685C35.8938 12.3295 36.4151 11.2738 36.8322 10.5179C37.2753 9.7359 37.7836 8.82357 38.3571 7.78091C39.3476 6.03444 40.5076 4.3792 41.837 2.8152C40.2209 4.19674 38.2137 6.1778 35.8156 8.7584C33.4435 11.3129 31.2148 13.685 29.1295 15.8746C27.0702 18.0381 24.8415 20.1886 22.4434 22.3261C20.0453 24.4636 17.5559 26.1579 14.9753 27.4091C12.4208 28.6603 9.91836 29.2859 7.46809 29.2859C5.01783 29.2859 3.15406 28.7515 1.87679 27.6828C0.625593 26.6401 -7.21149e-06 25.2977 -7.21149e-06 23.6555C-7.21149e-06 22.0133 0.716826 20.5145 2.15049 19.159C3.58416 17.7775 5.43489 17.0867 7.70269 17.0867C9.13636 17.0867 10.1139 17.5168 10.6352 18.377C12.9291 16.6827 15.5879 15.8355 18.6116 15.8355ZM40.4801 21.0749C40.4801 22.1436 40.9102 22.7823 41.7704 22.9908C41.7965 22.8605 41.8095 22.5998 41.8095 22.2088C41.8095 21.7917 41.7052 21.4529 41.4967 21.1922C41.2882 20.9055 41.0666 20.7621 40.832 20.7621C40.5974 20.7621 40.4801 20.8664 40.4801 21.0749ZM41.614 23.5773C40.3367 23.447 39.659 22.7432 39.5808 21.4659C38.6945 21.492 37.8604 21.9872 37.0784 22.9517C36.3225 23.8901 35.9445 24.7894 35.9445 25.6496C35.9445 26.6141 36.4528 27.0963 37.4694 27.0963C38.1471 27.0963 38.9291 26.7574 39.8154 26.0797C40.7017 25.3759 41.3012 24.5418 41.614 23.5773ZM34.6151 25.9624C34.6151 24.9197 35.1625 23.8119 36.2573 22.6389C37.3782 21.4659 38.5121 20.8664 39.659 20.8403C39.8936 20.345 40.2846 20.0974 40.832 20.0974C41.4055 20.0974 41.8486 20.2668 42.1614 20.6057C42.5003 20.9185 42.6697 21.3356 42.6697 21.8569C42.6697 22.3522 42.6176 22.7562 42.5133 23.069C43.2692 23.069 44.1164 22.8865 45.0548 22.5216C45.9932 22.1567 46.5536 21.883 46.7361 21.7005L46.9316 21.896C46.9316 21.9481 46.8273 22.0654 46.6188 22.2479C46.4103 22.4304 45.8498 22.691 44.9375 23.0299C44.0252 23.3688 43.165 23.5512 42.3569 23.5773C41.9398 24.6721 41.21 25.6366 40.1673 26.4707C39.1246 27.2788 38.0429 27.6828 36.922 27.6828C35.3841 27.6828 34.6151 27.1093 34.6151 25.9624ZM50.5453 22.9126C50.9363 22.2088 51.1318 21.6223 51.1318 21.1531C51.1318 20.6839 50.8972 20.4493 50.428 20.4493C50.0631 20.4493 49.8806 20.7751 49.8806 21.4268C49.8806 22.0524 50.1022 22.5477 50.5453 22.9126ZM47.4173 19.6282C47.704 19.6282 47.8474 19.8498 47.8474 20.2929C47.8474 20.71 47.3391 21.7005 46.3225 23.2645C45.332 24.8285 44.8367 25.8451 44.8367 26.3143C44.8367 26.7574 45.0192 26.979 45.3841 26.979C46.1922 26.979 47.0263 26.6532 47.8865 26.0015C48.7467 25.3498 49.4766 24.5678 50.0761 23.6555C49.3723 23.2384 49.0204 22.691 49.0204 22.0133C49.0204 21.3356 49.1898 20.7882 49.5287 20.3711C49.8676 19.954 50.2977 19.7455 50.819 19.7455C51.5228 19.7455 51.8747 20.0974 51.8747 20.8012C51.8747 21.505 51.6271 22.3131 51.1318 23.2254C51.3403 23.2775 51.6662 23.3036 52.1093 23.3036C52.5785 23.3036 53.0477 23.1863 53.5169 22.9517C53.9861 22.691 54.3119 22.4434 54.4944 22.2088C54.7029 21.9742 54.8724 21.8569 55.0027 21.8569C55.133 21.8569 55.1982 21.896 55.1982 21.9742C55.1982 22.1045 55.0679 22.3261 54.8072 22.6389C54.5726 22.9256 54.1295 23.2254 53.4778 23.5382C52.8522 23.8249 52.2787 23.9683 51.7574 23.9683C51.2621 23.9683 50.9102 23.9422 50.7017 23.8901C49.9718 24.9849 49.0725 25.9103 48.0038 26.6662C46.9351 27.3961 45.8272 27.761 44.6803 27.761C44.0808 27.761 43.781 27.4482 43.781 26.8226C43.781 26.1709 44.3284 25.037 45.4232 23.4209C46.518 21.8048 47.0654 20.7751 47.0654 20.332C47.0654 19.8628 47.1827 19.6282 47.4173 19.6282ZM54.1984 27.0181C55.215 27.0181 56.3489 26.4968 57.6001 25.4541C58.8513 24.3854 59.5812 23.473 59.7897 22.7171C59.7897 22.4043 59.5942 22.1436 59.2032 21.9351C58.8122 21.7005 58.3691 21.5832 57.8738 21.5832C56.6747 21.5832 55.5669 22.1045 54.5503 23.1472C53.5598 24.1638 53.0645 25.0631 53.0645 25.8451C53.0645 26.6271 53.4425 27.0181 54.1984 27.0181ZM58.2257 20.9576C59.138 20.9576 59.894 21.2834 60.4935 21.9351C60.5196 21.9351 60.7281 21.7396 61.1191 21.3486C61.3016 21.0619 61.5101 20.9185 61.7447 20.9185C61.9793 20.9185 62.0966 21.0358 62.0966 21.2704L61.9402 21.6223C61.862 21.7526 61.3407 22.3913 60.3762 23.5382C59.4378 24.6851 58.8904 25.3629 58.734 25.5714C58.6037 25.7799 58.5385 26.0927 58.5385 26.5098C58.5385 26.7965 58.721 26.9399 59.0859 26.9399C59.8418 26.9399 60.9106 26.3143 62.2921 25.0631C62.3703 24.9588 62.4485 24.9067 62.5267 24.9067C62.631 24.9067 62.6831 24.9719 62.6831 25.1022C62.6831 25.415 62.1487 25.9103 61.08 26.588C60.0373 27.2657 59.0989 27.6046 58.2648 27.6046C57.6913 27.6046 57.4046 27.3048 57.4046 26.7053C57.4046 26.4968 57.3655 26.3925 57.2873 26.3925C57.2352 26.3925 57.1961 26.4055 57.17 26.4316C55.8667 27.2918 54.6285 27.7219 53.4555 27.7219C52.3086 27.7219 51.7351 27.2006 51.7351 26.1579C51.7351 25.0631 52.3868 23.9292 53.6901 22.7562C54.9934 21.5571 56.5053 20.9576 58.2257 20.9576Z" fill="#FBFF12"/>
<path d="M77.4128 11.4563V11.4954C78.4815 10.9741 79.3417 10.4527 79.9934 9.9314C80.6451 9.384 80.9709 8.96694 80.9709 8.6802C80.9709 8.3674 80.8406 8.211 80.5799 8.211C80.0325 8.211 79.3678 8.57594 78.5858 9.3058C77.8038 10.0096 77.4128 10.7264 77.4128 11.4563ZM82.3003 8.211C82.3003 8.78447 81.8572 9.43614 80.9709 10.166C80.0846 10.8698 78.9377 11.5215 77.5301 12.121C77.8429 12.7466 78.5597 13.0594 79.6806 13.0594C81.3489 13.0594 83.2126 12.512 85.2719 11.4172C87.3312 10.3224 89.0646 9.01907 90.4722 7.5072C91.9059 5.96927 92.6227 4.62684 92.6227 3.4799C92.6227 1.78557 91.0196 0.938405 87.8134 0.938405C84.6333 0.938405 81.3098 2.16354 77.8429 4.6138C74.376 7.038 71.4305 9.9705 69.0063 13.4113H69.3582C71.6521 13.4113 74.0241 12.903 76.4744 11.8864V11.5736C76.4744 10.6873 77.087 9.775 78.3121 8.8366C79.5372 7.8982 80.5799 7.42901 81.4401 7.42901C82.0136 7.42901 82.3003 7.68967 82.3003 8.211ZM69.9056 6.8034L68.9281 6.7252C68.3025 6.7252 67.6378 7.18137 66.934 8.0937C66.2302 9.00604 65.8783 9.78804 65.8783 10.4397C65.8783 11.8994 66.5691 12.8509 67.9506 13.294C70.5833 9.64467 73.8286 6.54274 77.6865 3.98821C81.5704 1.4076 85.3892 0.117304 89.1428 0.117304C92.1405 0.117304 93.6393 1.0166 93.6393 2.8152C93.6393 4.11854 92.8964 5.64344 91.4106 7.38991C89.9248 9.11031 88.035 10.6091 85.7411 11.8864C83.4472 13.1376 81.2837 13.7632 79.2505 13.7632C77.9211 13.7632 77.0479 13.3331 76.6308 12.4729C73.972 13.5156 71.4957 14.0369 69.2018 14.0369H68.5762C66.2302 17.4777 65.0572 20.4623 65.0572 22.9908C65.0572 24.4245 65.5003 25.5584 66.3866 26.3925C67.2989 27.2006 68.6935 27.6046 70.5703 27.6046C73.6722 27.6046 76.5526 26.7705 79.2114 25.1022C79.837 24.7112 80.3062 24.3854 80.619 24.1247L81.0882 23.7337C81.1664 23.6816 81.2837 23.6555 81.4401 23.6555C81.5965 23.6555 81.6747 23.7467 81.6747 23.9292C81.6747 24.0856 81.5574 24.242 81.3228 24.3984C78.0123 27.0051 74.2066 28.3084 69.9056 28.3084C67.8463 28.3084 66.3084 27.8653 65.2918 26.979C64.3013 26.0667 63.806 24.8285 63.806 23.2645C63.806 20.6057 65.0442 17.4907 67.5205 13.9196C65.7219 13.3722 64.8226 12.3035 64.8226 10.7134C64.8226 9.59254 65.37 8.51077 66.4648 7.4681C67.5596 6.39937 68.5632 5.865 69.4755 5.865C69.9968 5.865 70.2575 6.0214 70.2575 6.33421C70.2575 6.647 70.1402 6.8034 69.9056 6.8034ZM84.6689 27.0181C85.6855 27.0181 86.8194 26.4968 88.0706 25.4541C89.3218 24.3854 90.0517 23.473 90.2602 22.7171C90.2602 22.4043 90.0647 22.1436 89.6737 21.9351C89.2827 21.7005 88.8396 21.5832 88.3443 21.5832C87.1452 21.5832 86.0374 22.1045 85.0208 23.1472C84.0303 24.1638 83.535 25.0631 83.535 25.8451C83.535 26.6271 83.913 27.0181 84.6689 27.0181ZM88.6962 20.9576C89.6085 20.9576 90.3645 21.2834 90.964 21.9351C90.9901 21.9351 91.1986 21.7396 91.5896 21.3486C91.7721 21.0619 91.9806 20.9185 92.2152 20.9185C92.4498 20.9185 92.5671 21.0358 92.5671 21.2704L92.4107 21.6223C92.3325 21.7526 91.8112 22.3913 90.8467 23.5382C89.9083 24.6851 89.3609 25.3629 89.2045 25.5714C89.0742 25.7799 89.009 26.0927 89.009 26.5098C89.009 26.7965 89.1915 26.9399 89.5564 26.9399C90.3123 26.9399 91.3811 26.3143 92.7626 25.0631C92.8408 24.9588 92.919 24.9067 92.9972 24.9067C93.1015 24.9067 93.1536 24.9719 93.1536 25.1022C93.1536 25.415 92.6192 25.9103 91.5505 26.588C90.5078 27.2657 89.5694 27.6046 88.7353 27.6046C88.1618 27.6046 87.8751 27.3048 87.8751 26.7053C87.8751 26.4968 87.836 26.3925 87.7578 26.3925C87.7057 26.3925 87.6666 26.4055 87.6405 26.4316C86.3372 27.2918 85.099 27.7219 83.926 27.7219C82.7791 27.7219 82.2056 27.2006 82.2056 26.1579C82.2056 25.0631 82.8573 23.9292 84.1606 22.7562C85.4639 21.5571 86.9758 20.9576 88.6962 20.9576ZM98.6557 24.0074C98.8903 24.0074 99.1901 23.9031 99.555 23.6946C99.6853 23.6946 99.7505 23.7467 99.7505 23.851C99.7505 23.9292 99.7114 23.9944 99.6332 24.0465C99.5811 24.0986 99.3465 24.1899 98.9294 24.3202C98.5123 24.4505 98.1735 24.5157 97.9128 24.5157C97.0526 24.5157 96.6225 24.242 96.6225 23.6946C96.6225 23.4861 96.6746 23.2645 96.7789 23.0299C96.9092 22.7953 96.9744 22.6389 96.9744 22.5607C96.9744 22.4825 96.9483 22.4434 96.8962 22.4434C96.3749 22.6259 95.6189 23.082 94.6284 23.8119L91.8523 27.2918C91.6438 27.5525 91.4483 27.6828 91.2658 27.6828C91.0573 27.6828 90.953 27.6176 90.953 27.4873C90.953 27.357 91.0442 27.1484 91.2267 26.8617L93.69 23.7728C93.8725 23.5382 94.2113 23.0951 94.7066 22.4434C95.2019 21.7917 95.4886 21.4007 95.5668 21.2704C95.6711 21.1401 95.8535 21.0749 96.1142 21.0749C96.4009 21.0749 96.5443 21.127 96.5443 21.2313C96.5443 21.3356 96.5182 21.4138 96.4661 21.4659L95.9187 22.2479C95.8405 22.3522 95.7493 22.4564 95.645 22.5607C95.8796 22.5086 96.818 22.0394 98.4602 21.1531C98.5123 21.127 98.6036 21.114 98.7339 21.114C98.8642 21.114 98.9294 21.1531 98.9294 21.2313C98.9294 21.2834 98.9033 21.3486 98.8512 21.4268C98.8251 21.4789 98.6948 21.6484 98.4602 21.9351C97.991 22.5086 97.7564 22.9387 97.7564 23.2254C97.7564 23.7467 98.0562 24.0074 98.6557 24.0074ZM99.814 27.1745C99.814 26.9399 99.9313 26.6923 100.166 26.4316C100.401 26.1449 100.609 26.0015 100.792 26.0015C101 26.0015 101.156 26.0667 101.261 26.197C101.391 26.3013 101.456 26.4707 101.456 26.7053C101.456 26.9399 101.313 27.1615 101.026 27.37C100.765 27.5785 100.544 27.6828 100.361 27.6828C99.9965 27.6828 99.814 27.5134 99.814 27.1745Z" fill="#FF2051"/>
</svg>
